<?xml version="1.0" encoding="utf-8"?>
<!-- Generator: Adobe Illustrator 19.2.0, SVG Export Plug-In . SVG Version: 6.00 Build 0)  -->
<svg version="1.1" xmlns="http://www.w3.org/2000/svg" xmlns:xlink="http://www.w3.org/1999/xlink" x="0px" y="0px"
	 viewBox="0 0 30 30" style="enable-background:new 0 0 30 30;" xml:space="preserve">
<style type="text/css">
	.st0{fill:#FFFFFF;}
	.st1{fill:#0095D6;}
	.st2{fill:#F93831;}
</style>
<g id="Layer_1">
	<circle cx="15.1" cy="15" r="14.6"/>
</g>
<g id="Layer_2">
	<g>
		<path class="st0" d="M9.9,16l4.1-0.6v-0.3c0-1.2-0.8-1.8-2.6-1.8c-1.8,0-2.4,0.6-2.5,1.7l-3.5-0.5c0.4-2.4,1.6-4.3,6-4.3
			c3.8,0,6.1,1.6,6.1,5.1v5.1l0.2,3.6h-3.2l-0.3-1.4c-1,1.2-2.6,1.8-4.4,1.8c-3.6,0-4.9-1.8-4.9-4.2C4.9,17.3,6.8,16.4,9.9,16z
			 M10.3,21.5c2,0.1,3.3-1.3,3.7-2.4V18l-3.6,0.6c-1.4,0.2-1.9,0.6-1.9,1.5C8.5,21,9.2,21.5,10.3,21.5z"/>
		<path class="st1" d="M24.4,8.4h-3.8V4.6h3.8V8.4z M20.8,10.6h3.4v13.4h-3.4V10.6z"/>
	</g>
</g>
<g id="Layer_3">
	<rect x="20.5" y="4.6" class="st2" width="3.9" height="3.9"/>
	<g>
	</g>
	<g>
	</g>
	<g>
	</g>
	<g>
	</g>
	<g>
	</g>
	<g>
	</g>
	<g>
	</g>
	<g>
	</g>
	<g>
	</g>
	<g>
	</g>
	<g>
	</g>
	<g>
	</g>
	<g>
	</g>
	<g>
	</g>
	<g>
	</g>
</g>
</svg>
